<?xml version="1.0" encoding="UTF-8"?>
<svg version="1.1" xmlns="http://www.w3.org/2000/svg" width="114" height="106">
<path d="M0 0 C37.62 0 75.24 0 114 0 C114 34.98 114 69.96 114 106 C76.38 106 38.76 106 0 106 C0 71.02 0 36.04 0 0 Z " fill="#FBFBFB" transform="translate(0,0)"/>
<path d="M0 0 C-0.33 1.65 -0.66 3.3 -1 5 C-1.55349121 5.0093457 -2.10698242 5.01869141 -2.67724609 5.02832031 C-17.39537537 5.05658435 -17.39537537 5.05658435 -31 10 C-31.7734375 10.44601562 -32.546875 10.89203125 -33.34375 11.3515625 C-44.50545326 18.3090242 -50.86191315 27.58573944 -55 40 C-56.3245894 55.83285724 -54.21976481 68.40435911 -44.32421875 81.16015625 C-37.03823221 89.25743037 -26.29895419 94.50748207 -15.46875 95.23828125 C-1.73000238 95.49520665 10.0552403 92.89590069 21 84 C31.82436961 72.79264524 35.39355035 59.33125353 35.15332031 44.08007812 C35.11283803 42.38643145 35.05801357 40.69313682 35 39 C33.22821947 39.956581 31.45760924 40.91532988 29.6875 41.875 C28.70136719 42.40867188 27.71523437 42.94234375 26.69921875 43.4921875 C23.90413542 45.00722126 23.90413542 45.00722126 21 47 C20.41804071 49.56885062 19.98484847 52.02576881 19.625 54.625 C18.10005136 63.88772712 15.21748221 69.80809859 7.7578125 75.75 C-0.00660639 81.27136454 -8.12176856 81.26675611 -17.3125 81.4375 C-18.30701172 81.48326172 -19.30152344 81.52902344 -20.32617188 81.57617188 C-27.85542932 81.68987701 -32.23023366 79.80406967 -38 75 C-36.6613286 71.46811887 -35.10053738 68.22415814 -33.2421875 64.9375 C-32.43237427 63.50289429 -32.43237427 63.50289429 -31.60620117 62.03930664 C-31.03490479 61.03633545 -30.4636084 60.03336426 -29.875 59 C-29.29403564 57.97575928 -28.71307129 56.95151855 -28.11450195 55.89624023 C-23.89690601 48.4930569 -19.53940513 41.20964344 -15 34 C-25.89 33.505 -25.89 33.505 -37 33 C-37 28.71 -37 24.42 -37 20 C-32.6075369 19.92517425 -28.21542328 19.87108317 -23.82250977 19.83520508 C-22.33188402 19.82022958 -20.84130149 19.79984181 -19.35083008 19.77368164 C-8.41754764 19.5867566 1.01939472 19.81551578 10 27 C13.29587045 30.45743273 16.13471403 34.17961871 19 38 C22.63 35.69 26.26 33.38 30 31 C27.98705978 25.96764944 25.79888264 23.23182154 22.265625 19.28125 C21.84796875 18.5284375 21.4303125 17.775625 21 17 C21.796875 14.21875 21.796875 14.21875 23 12 C30.47778865 14.94781423 34.73358161 24.00809511 37.9375 30.9375 C43.03840989 42.67823836 42.59731353 57.22351497 38.25 69.1484375 C31.30218486 84.99814078 20.10028945 93.92733558 4.359375 100.203125 C-8.49536172 104.54479105 -21.34759788 102.2969777 -33.38671875 96.9375 C-47.51470555 89.83652234 -56.03150462 77.66794851 -61 63 C-64.06223124 48.45921645 -61.92767164 34.46178097 -54.0703125 21.88671875 C-46.20851215 10.92469902 -35.34236807 2.58670467 -22.078125 -0.57421875 C-15.103285 -1.53901261 -6.71810314 -2.23936771 0 0 Z " fill="#B8B9B8" transform="translate(67,3)"/>
<path d="M0 0 C-0.33 1.65 -0.66 3.3 -1 5 C-1.55349121 5.0093457 -2.10698242 5.01869141 -2.67724609 5.02832031 C-17.39537537 5.05658435 -17.39537537 5.05658435 -31 10 C-31.7734375 10.44601562 -32.546875 10.89203125 -33.34375 11.3515625 C-44.50545326 18.3090242 -50.86191315 27.58573944 -55 40 C-56.3245894 55.83285724 -54.21976481 68.40435911 -44.32421875 81.16015625 C-37.03823221 89.25743037 -26.29895419 94.50748207 -15.46875 95.23828125 C-1.73000238 95.49520665 10.0552403 92.89590069 21 84 C30.27415651 74.3977076 34.93274912 62.29757491 35.4375 49 C35.08078076 37.59984773 30.1407197 26.47643102 22.28515625 18.19140625 C21.86105469 17.79824219 21.43695313 17.40507812 21 17 C21.99 14.525 21.99 14.525 23 12 C30.47778865 14.94781423 34.73358161 24.00809511 37.9375 30.9375 C43.03840989 42.67823836 42.59731353 57.22351497 38.25 69.1484375 C31.30218486 84.99814078 20.10028945 93.92733558 4.359375 100.203125 C-8.49536172 104.54479105 -21.34759788 102.2969777 -33.38671875 96.9375 C-47.51470555 89.83652234 -56.03150462 77.66794851 -61 63 C-64.06223124 48.45921645 -61.92767164 34.46178097 -54.0703125 21.88671875 C-46.20851215 10.92469902 -35.34236807 2.58670467 -22.078125 -0.57421875 C-15.103285 -1.53901261 -6.71810314 -2.23936771 0 0 Z " fill="#A77130" transform="translate(67,3)"/>
<path d="M0 0 C4.3924631 -0.07482575 8.78457672 -0.12891683 13.17749023 -0.16479492 C14.66811598 -0.17977042 16.15869851 -0.20015819 17.64916992 -0.22631836 C29.3660525 -0.42664052 39.67134717 -0.05339827 48.6640625 8.6015625 C52.04314735 12.23688127 53.7496138 14.8670828 54 20 C52.37829621 21.00533667 50.75252763 22.00411907 49.125 23 C48.22007813 23.556875 47.31515625 24.11375 46.3828125 24.6875 C44 26 44 26 42 26 C38 19.25 38 19.25 38 17 C37.21625 16.690625 36.4325 16.38125 35.625 16.0625 C33 15 33 15 31 14 C28.67726841 13.84479443 26.35040687 13.74980833 24.0234375 13.68359375 C23.33819 13.66281265 22.6529425 13.64203156 21.94692993 13.62062073 C19.75638931 13.55519815 17.56572811 13.49627446 15.375 13.4375 C13.8906125 13.39430782 12.40623722 13.3506933 10.921875 13.30664062 C7.28137916 13.19952447 3.64074749 13.09823638 0 13 C0 8.71 0 4.42 0 0 Z " fill="#2B5FB0" transform="translate(30,23)"/>
<path d="M0 0 C0.59239776 8.6555895 -0.17811792 15.94931026 -5.54296875 23.0390625 C-10.97569869 28.88204436 -17.08465311 32.08907181 -25 33 C-28.95943465 33.11441545 -32.91435894 33.09420464 -36.875 33.0625 C-38.47988281 33.05573242 -38.47988281 33.05573242 -40.1171875 33.04882812 C-42.74484986 33.03709749 -45.37239538 33.02068228 -48 33 C-48.66 31.68 -49.32 30.36 -50 29 C-37.32699681 20.40116167 -37.32699681 20.40116167 -30.0625 20.1875 C-25.02378274 19.72943479 -21.03036772 17.08459759 -17.625 13.5 C-15.98910881 11.17772859 -15.98910881 11.17772859 -15.2734375 9.078125 C-13.43312143 6.07490982 -11.04547079 4.96307732 -8 3.25 C-6.9275 2.63640625 -5.855 2.0228125 -4.75 1.390625 C-2 0 -2 0 0 0 Z " fill="#285CAE" transform="translate(86,51)"/>
<path d="M0 0 C3.901715 1.47929261 6.4339187 2.60910685 9 6 C9.75 9.75 9.75 9.75 10 13 C1.82616305 18.58545525 -6.59116438 23.7792996 -15 29 C-15 25.12869823 -13.67162964 23.35570064 -11.71875 20.01953125 C-11.38580933 19.44667892 -11.05286865 18.8738266 -10.70983887 18.28361511 C-9.64593855 16.45630243 -8.57312316 14.63440865 -7.5 12.8125 C-6.77675003 11.57391421 -6.05408653 10.33498576 -5.33203125 9.09570312 C-3.56147327 6.05979778 -1.78288265 3.0286877 0 0 Z " fill="#FAFAFA" transform="translate(61,37)"/>
<path d="M0 0 C1.0725 0.07992188 2.145 0.15984375 3.25 0.2421875 C4.85875 0.33886719 4.85875 0.33886719 6.5 0.4375 C7.4075 0.66179688 8.315 0.88609375 9.25 1.1171875 C10.4375 3.109375 10.4375 3.109375 11.25 5.1171875 C12.24 5.4471875 13.23 5.7771875 14.25 6.1171875 C13.26 9.0871875 12.27 12.0571875 11.25 15.1171875 C10.59 15.1171875 9.93 15.1171875 9.25 15.1171875 C8.26 17.5921875 8.26 17.5921875 7.25 20.1171875 C5.3046875 19.3984375 5.3046875 19.3984375 3.25 18.1171875 C2.6328125 16.0234375 2.6328125 16.0234375 2.375 13.6171875 C2.0235898 11.21485336 2.0235898 11.21485336 1.25 9.1171875 C-1.73283157 7.42553449 -1.73283157 7.42553449 -4.75 7.1171875 C-4.875 4.7421875 -4.875 4.7421875 -4.75 2.1171875 C-2.75 0.1171875 -2.75 0.1171875 0 0 Z " fill="#93B4D3" transform="translate(72.75,3.8828125)"/>
<path d="M0 0 C-1.43820813 5.03372844 -3.90245515 6.98955889 -8 10 C-10.75078884 10.91692961 -12.35948913 11.10886083 -15.1875 11.0625 C-17.0746875 11.0315625 -17.0746875 11.0315625 -19 11 C-15.44608026 8.03073619 -11.81482005 5.57681464 -7.8125 3.25 C-6.76707031 2.63640625 -5.72164062 2.0228125 -4.64453125 1.390625 C-2 0 -2 0 0 0 Z " fill="#F7F8F8" transform="translate(71,60)"/>
</svg>
